M48
INCH
T01C0.0118
T02C0.0236
T03C0.0256
T04C0.0354
T05C0.0394
%
T01
X+081071Y+015437
X+081364Y+015421
X+082445Y+015291
X+084010Y+015533
X+084010Y+013750
X+084413Y+012508
X+082843Y+012724
X+081720Y+013717
X+081083Y+013689
X+080138Y+013236
X+080138Y+012606
X+080358Y+012213
X+080752Y+011039
X+081083Y+011059
X+082509Y+011059
X+083242Y+011256
X+079622Y+015717
X+080972Y+016693
X+077486Y+011256
X+076502Y+011039
X+076089Y+011551
X+076285Y+010315
X+074612Y+008898
X+071763Y+008484
X+070793Y+008721
X+071709Y+014370
X+065071Y+012028
X+064513Y+009634
X+063581Y+009673
X+062618Y+009299
X+062480Y+009043
X+061204Y+010823
X+059710Y+010049
X+058929Y+009043
X+055945Y+007402
X+054980Y+008032
X+054705Y+007815
X+053839Y+007264
X+053520Y+007067
X+052638Y+007067
X+052008Y+006504
X+049646Y+007264
X+048245Y+007815
X+050413Y+009358
X+050532Y+010618
X+050335Y+010933
X+049803Y+012488
X+050335Y+013295
X+050532Y+013701
X+051890Y+013898
X+051890Y+012744
X+052249Y+011268
X+052643Y+011268
X+053237Y+011524
X+054827Y+010961
X+055024Y+011315
X+055394Y+011551
X+055327Y+012846
X+056721Y+012008
X+055417Y+009496
X+054764Y+009299
X+054764Y+009780
X+053740Y+008846
X+052953Y+009496
X+047127Y+010618
X+046812Y+010757
X+045291Y+009990
X+043937Y+009240
X+043937Y+008531
X+043091Y+009990
X+042894Y+010187
X+042074Y+009425
X+038307Y+007815
X+038876Y+013898
X+038268Y+015945
X+036732Y+016630
X+033513Y+011976
X+032106Y+011721
X+031909Y+011465
X+030669Y+012776
X+030394Y+014882
X+027461Y+013898
X+023858Y+014035
X+019862Y+014331
X+016654Y+013898
X+016201Y+012901
X+013760Y+007815
X+016821Y+006831
X+009991Y+009068
X+010601Y+011465
T02
X+085358Y+016343G85X+085043Y+016343
X+083783Y+016343G85X+083350Y+016343
X+083783Y+012941G85X+083350Y+012941
X+085358Y+012941G85X+085043Y+012941
T03
X+083764Y+013504
X+083764Y+015780
T04
X+085295Y+009346
X+084295Y+009346
X+084413Y+010346
X+085416Y+010345
X+085295Y+011346
X+084297Y+011344
X+084415Y+008345
X+085415Y+008344
X+085295Y+007346
X+084295Y+007346
T05
X+045645Y+009891
X+044458Y+009891
T00
M30
