G04 DipTrace 3.3.1.3*
G04 TopPaste.gbr*
%MOIN*%
G04 #@! TF.FileFunction,Paste,Top*
G04 #@! TF.Part,Single*
%AMOUTLINE2*
4,1,4,
-0.031496,-0.005906,
-0.031496,0.005906,
0.031496,0.005906,
0.031496,-0.005906,
-0.031496,-0.005906,
0*%
%AMOUTLINE5*
4,1,4,
-0.005906,0.031496,
0.005906,0.031496,
0.005906,-0.031496,
-0.005906,-0.031496,
-0.005906,0.031496,
0*%
%ADD49R,0.027559X0.007874*%
%ADD51R,0.085827X0.057087*%
%ADD53O,0.001969X0.019685*%
%ADD55R,0.023622X0.070866*%
%ADD57R,0.031496X0.149606*%
%ADD59R,0.05315X0.043307*%
%ADD61R,0.043307X0.05315*%
%ADD65R,0.037008X0.015748*%
%ADD71R,0.037008X0.003937*%
%ADD73R,0.015748X0.015748*%
%ADD75R,0.051181X0.043307*%
%ADD77R,0.043307X0.051181*%
%ADD79R,0.027559X0.019685*%
%ADD81R,0.019685X0.027559*%
%ADD83R,0.11811X0.149606*%
%ADD90OUTLINE2*%
%ADD93OUTLINE5*%
%FSLAX26Y26*%
G04*
G70*
G90*
G75*
G01*
G04 TopPaste*
%LPD*%
D83*
X3751969Y826378D3*
Y1684646D3*
D81*
X4910630Y1004724D3*
Y953543D3*
X5512205Y1029134D3*
Y977953D3*
D79*
X8205118Y1499606D3*
X8256299D3*
D81*
X8126772Y1636220D3*
Y1585039D3*
X8171260Y1636220D3*
Y1585039D3*
X8083465Y1635827D3*
Y1584646D3*
X8172047Y1272441D3*
Y1323622D3*
X8086614Y1272441D3*
Y1323622D3*
X5642520Y1200787D3*
Y1251969D3*
D77*
X572835Y1492126D3*
X647638D3*
X933071D3*
X1007874D3*
X1293307D3*
X1368110D3*
X1653543D3*
X1728346D3*
X2013780D3*
X2088583D3*
X2374016D3*
X2448819D3*
X2734252D3*
X2809055D3*
X3094488D3*
X3169291D3*
X572835Y1208661D3*
X647638D3*
X933071D3*
X1007874D3*
X1293307D3*
X1368110D3*
X1653543D3*
X1728346D3*
X2013780D3*
X2088583D3*
X2374016D3*
X2448819D3*
X2734252D3*
X2809055D3*
X3094488D3*
X3169291D3*
D75*
X5866535Y858268D3*
Y783465D3*
X6358268Y858268D3*
Y783465D3*
D73*
X5622047Y826772D3*
Y740157D3*
X5539370Y826772D3*
Y740157D3*
D81*
X8039764Y1635827D3*
Y1584646D3*
D71*
X8333071Y1414961D3*
Y1395276D3*
Y1434646D3*
Y1474016D3*
Y1454331D3*
Y1493701D3*
Y1513386D3*
Y1533071D3*
D65*
Y1590157D3*
Y1369685D3*
Y1558661D3*
Y1338189D3*
D79*
X635827Y1433071D3*
X584646D3*
X996063D3*
X944882D3*
X1356299D3*
X1305118D3*
X1716535D3*
X1665354D3*
X2076772D3*
X2025591D3*
X2437008D3*
X2385827D3*
X2797244D3*
X2746063D3*
X3157480D3*
X3106299D3*
X635827Y1149606D3*
X584646D3*
X996063D3*
X944882D3*
X1356299D3*
X1305118D3*
X1716535D3*
X1665354D3*
X2076772D3*
X2025591D3*
X2437008D3*
X2385827D3*
X2797244D3*
X2746063D3*
X3157480D3*
X3106299D3*
X5841732Y939764D3*
X5892913D3*
X6333465Y937795D3*
X6384646D3*
D81*
X6548425Y1467323D3*
Y1416142D3*
X6976772Y1464567D3*
Y1413386D3*
X6542126Y963386D3*
Y912205D3*
X6972047Y960630D3*
Y909449D3*
D79*
X6089370Y910630D3*
X6140551D3*
D81*
X7511417Y1468504D3*
Y1417323D3*
X7507874Y969291D3*
Y918110D3*
X8043307Y1323622D3*
Y1272441D3*
X8128346Y1323622D3*
Y1272441D3*
X5593701Y1200394D3*
Y1251575D3*
X5549213Y1251181D3*
Y1200000D3*
X5501181Y1251181D3*
Y1200000D3*
D79*
X8256693Y1413780D3*
X8205512D3*
X8256693Y1455512D3*
X8205512D3*
D61*
X520470Y743996D3*
Y1056988D3*
X697635Y743996D3*
Y1056988D3*
X880706Y743996D3*
Y1056988D3*
X1057871Y743996D3*
Y1056988D3*
X1240942Y743996D3*
Y1056988D3*
X1418108Y743996D3*
Y1056988D3*
X1601178Y743996D3*
Y1056988D3*
X1778344Y743996D3*
Y1056988D3*
X1961415Y743996D3*
Y1056988D3*
X2138580Y743996D3*
Y1056988D3*
X2321651Y743996D3*
Y1056988D3*
X2498816Y743996D3*
Y1056988D3*
X2681887Y743996D3*
Y1056988D3*
X2859052Y743996D3*
Y1056988D3*
X3042123Y743996D3*
Y1056988D3*
X3219289Y743996D3*
Y1056988D3*
D59*
X6867815Y852360D3*
X6554823D3*
X6867815Y1029525D3*
X6554823D3*
X7298917Y853147D3*
X6985925D3*
X7298917Y1030312D3*
X6985925D3*
X6866240Y1352360D3*
X6553248D3*
X6866240Y1529525D3*
X6553248D3*
X7299705Y1353147D3*
X6986713D3*
X7299705Y1530312D3*
X6986713D3*
D61*
X6201971Y1240256D3*
Y927264D3*
X6024806Y1240256D3*
Y927264D3*
D59*
X7834350Y853147D3*
X7521358D3*
X7834350Y1030312D3*
X7521358D3*
X7834350Y1353147D3*
X7521358D3*
X7834350Y1530312D3*
X7521358D3*
D57*
X4358268Y1007874D3*
X4645738Y1008037D3*
D55*
X4414512Y1064118D3*
X4533249D3*
X4595743D3*
D90*
X4976378Y1156299D3*
Y1124803D3*
Y1093307D3*
Y1061812D3*
Y1030315D3*
Y998820D3*
Y967323D3*
Y935827D3*
Y904331D3*
Y872835D3*
Y841339D3*
D93*
X5043307Y774409D3*
X5074803D3*
X5106299D3*
X5137795D3*
X5169290D3*
X5200787D3*
X5232283D3*
X5263780D3*
X5295276D3*
X5326772D3*
X5358268D3*
D90*
X5425197Y841339D3*
Y872835D3*
Y904331D3*
Y935827D3*
Y967323D3*
Y998819D3*
Y1030316D3*
Y1061811D3*
Y1093307D3*
Y1124803D3*
Y1156299D3*
D93*
X5358268Y1223228D3*
X5326772D3*
X5295276D3*
X5263780D3*
X5232283D3*
X5200786D3*
X5169291D3*
X5137794D3*
X5106299D3*
X5074803D3*
X5043307D3*
D53*
X8133465Y1512598D3*
X8115748D3*
X8098031D3*
X8080315D3*
X8062598D3*
X8044882D3*
Y1402362D3*
X8062598D3*
X8080315D3*
X8098031D3*
X8115748D3*
X8133465D3*
D51*
X8089172Y1457483D3*
D49*
X5551181Y1131496D3*
Y1105906D3*
Y1080315D3*
X5637795D3*
Y1131496D3*
M02*
